<svg width="64" height="64" viewBox="0 0 64 64" fill="none" xmlns="http://www.w3.org/2000/svg">
<path d="M40.0477 27.792C41.8023 26.0374 41.8023 23.1892 40.0477 21.4346C34.3402 15.7249 25.0836 15.7249 19.3761 21.4346L2.19604 38.6147C1.38639 39.4244 0 38.8521 0 37.7053V37.7008C0 16.8784 16.8784 0 37.7008 0H57.3764C61.032 0 63.9956 2.96354 63.9956 6.61916C63.9956 9.09025 63.0151 11.4571 61.2672 13.205L39.624 34.8482C37.428 37.0442 33.8655 37.0442 31.6695 34.8482C29.9149 33.0936 27.0667 33.0936 25.3121 34.8482C23.5575 36.605 23.5575 39.451 25.3121 41.2078C31.0218 46.9153 40.2762 46.9153 45.9859 41.2078L61.804 25.3897C62.6136 24.5801 64 25.1524 64 26.2992C64 47.1216 47.1216 64 26.2992 64H6.6236C2.96797 64 0.00443654 61.0365 0.00443654 57.3808C0.00443654 54.9097 0.984888 52.5429 2.73284 50.795L25.738 27.7898C27.9362 25.5916 31.4987 25.5938 33.6947 27.7898C35.4493 29.5466 38.2975 29.5466 40.0544 27.7898L40.0477 27.792Z" fill="white"/>
</svg>
