<svg preserveAspectRatio="none" width="100%" height="100%" overflow="visible" style="display: block;" viewBox="0 0 16 15" fill="none" xmlns="http://www.w3.org/2000/svg">
<g id="Group">
<path id="Vector" opacity="0.4" d="M14.676 5.23466L13.769 4.91465C13.665 4.66365 13.549 4.41564 13.411 4.17564C13.28 3.94864 13.115 3.75066 12.96 3.54466L13.144 2.56165C13.297 1.73565 12.912 0.897636 12.184 0.477636L11.832 0.274636C11.104 -0.145364 10.187 -0.0613345 9.54801 0.485666L8.819 1.10966C8.276 1.03666 7.732 1.02965 7.196 1.09965L6.468 0.476656C5.829 -0.0693443 4.911 -0.155344 4.183 0.265656L3.832 0.468636C3.104 0.887636 2.719 1.72565 2.873 2.55265L3.047 3.48567C2.721 3.90867 2.472 4.38565 2.263 4.88465L1.324 5.21565C0.532 5.49565 0 6.24866 0 7.08866V7.49366C0 8.33465 0.532 9.08664 1.324 9.36664L2.23 9.68665C2.334 9.93765 2.449 10.1856 2.588 10.4246C2.719 10.6526 2.884 10.8506 3.04 11.0566L2.856 12.0396C2.703 12.8656 3.088 13.7036 3.816 14.1236L4.168 14.3266C4.477 14.5046 4.81901 14.5926 5.16001 14.5926C5.62301 14.5926 6.08401 14.4306 6.45201 14.1156L7.176 13.4956C7.454 13.5326 7.732 13.5526 8.009 13.5526C8.275 13.5526 8.54 13.5346 8.803 13.5006L9.53201 14.1246C9.90001 14.4396 10.361 14.6016 10.825 14.6016C11.166 14.6016 11.509 14.5146 11.817 14.3356L12.168 14.1326C12.896 13.7136 13.281 12.8756 13.127 12.0486L12.953 11.1146C13.279 10.6916 13.527 10.2156 13.736 9.71764L14.676 9.38564C15.468 9.10564 16 8.35265 16 7.51264V7.10764C16 6.26664 15.468 5.51466 14.676 5.23466Z" fill="var(--fill-0, white)"/>
<path id="Vector_2" d="M8 9.80085C9.38071 9.80085 10.5 8.68155 10.5 7.30085C10.5 5.92014 9.38071 4.80085 8 4.80085C6.61929 4.80085 5.5 5.92014 5.5 7.30085C5.5 8.68155 6.61929 9.80085 8 9.80085Z" fill="var(--fill-0, white)"/>
</g>
</svg>
