<svg preserveAspectRatio="none" width="100%" height="100%" overflow="visible" style="display: block;" viewBox="0 0 22 22" fill="none" xmlns="http://www.w3.org/2000/svg">
<g id="Frame" opacity="0.6">
<path id="Vector" d="M16.1792 5.82083C15.4108 5.04558 14.4782 4.45281 13.4501 4.08631C12.422 3.7198 11.3246 3.58892 10.2392 3.70333C6.875 4.0425 4.10667 6.77417 3.73083 10.1383C3.22667 14.5842 6.66417 18.3333 11 18.3333C12.3843 18.3333 13.7401 17.9406 14.91 17.2006C16.08 16.4607 17.0159 15.404 17.6092 14.1533C17.9025 13.5392 17.4625 12.8333 16.7842 12.8333C16.445 12.8333 16.1242 13.0167 15.9775 13.3192C15.4453 14.4641 14.535 15.3908 13.3998 15.9434C12.2645 16.496 10.9736 16.6408 9.74417 16.3533C7.70917 15.9042 6.06833 14.245 5.6375 12.21C5.4564 11.4054 5.45849 10.5704 5.64364 9.76671C5.82878 8.96304 6.19223 8.21127 6.70711 7.56701C7.22199 6.92275 7.87512 6.40249 8.6182 6.0447C9.36127 5.68691 10.1753 5.50076 11 5.5C12.5217 5.5 13.8783 6.1325 14.8683 7.13167L13.4842 8.51583C12.9067 9.09333 13.31 10.0833 14.1258 10.0833H17.4167C17.9208 10.0833 18.3333 9.67083 18.3333 9.16667V5.87583C18.3333 5.06 17.3433 4.6475 16.7658 5.225L16.1792 5.82083Z" fill="var(--fill-0, black)"/>
</g>
</svg>
