<svg preserveAspectRatio="none" width="100%" height="100%" overflow="visible" style="display: block;" viewBox="0 0 15 15" fill="none" xmlns="http://www.w3.org/2000/svg">
<g id="Group">
<path id="Vector" fill-rule="evenodd" clip-rule="evenodd" d="M7.51842 5.0127C7.71251 5.37863 7.5732 5.83261 7.20728 6.0267C6.97 6.15255 6.74672 6.31571 6.54602 6.51712C5.48098 7.58608 5.46311 9.39543 6.53508 10.4674L8.71003 12.6424C9.79173 13.724 11.5819 13.7097 12.6594 12.6324C13.7475 11.5443 13.7475 9.78113 12.6594 8.69303L11.897 7.93065C11.6041 7.63776 11.6041 7.16289 11.897 6.86999C12.1899 6.5771 12.6647 6.57711 12.9576 6.87L13.72 7.63241C15.3939 9.30633 15.3939 12.0191 13.72 13.693C12.0645 15.3484 9.30913 15.3627 7.64941 13.703L5.47442 11.528C3.80053 9.85413 3.80053 7.14129 5.47442 5.4674C5.7789 5.16331 6.12397 4.90335 6.50442 4.70156C6.87035 4.50747 7.32433 4.64677 7.51842 5.0127Z" fill="var(--fill-0, white)"/>
<path id="Vector_2" fill-rule="evenodd" clip-rule="evenodd" d="M7.32605 1.23839L9.50103 3.41339C11.1599 5.07223 11.1472 7.82807 9.49203 9.48313C9.18393 9.79233 8.83903 10.0447 8.47107 10.2399C8.10515 10.434 7.65116 10.2947 7.45708 9.92873C7.26299 9.56283 7.40229 9.10883 7.76822 8.91473C8.0122 8.78533 8.23536 8.61883 8.43039 8.4234C9.50783 7.34598 9.52193 5.55563 8.44039 4.47405L6.26539 2.29905C5.18497 1.21862 3.39196 1.23007 2.31608 2.30905C1.22798 3.39715 1.22798 5.16028 2.31608 6.24839L3.07848 7.01079C3.37137 7.30368 3.37137 7.77856 3.07847 8.07145C2.78558 8.36434 2.3107 8.36434 2.01781 8.07144L1.25542 7.30905C-0.418324 5.6353 -0.418474 2.92276 1.25498 1.24883C2.90827 -0.409226 5.66785 -0.419816 7.32605 1.23839Z" fill="var(--fill-0, white)" fill-opacity="0.4"/>
</g>
</svg>
