<svg preserveAspectRatio="none" width="100%" height="100%" overflow="visible" style="display: block;" viewBox="0 0 16 16" fill="none" xmlns="http://www.w3.org/2000/svg">
<g id="Group">
<path id="Vector" opacity="0.4" d="M14.2129 1.41781L7.71292 0.0496527C7.04402 -0.0929503 6.3613 0.0755227 5.832 0.504723C5.3037 0.933923 5 1.57061 5 2.25131V9.68543C5 10.7435 5.75201 11.6698 6.78711 11.8875L13.2871 13.2552C13.4424 13.2879 13.5986 13.304 13.7539 13.304C14.2646 13.304 14.7617 13.1297 15.168 12.8011C15.6963 12.3719 16 11.7347 16 11.0535V3.61935C16 2.56125 15.248 1.63561 14.2129 1.41781Z" fill="var(--fill-0, white)"/>
<path id="Vector_2" d="M9.21288 4.11288L2.71292 2.74471C2.04402 2.60211 1.3613 2.77059 0.832 3.19979C0.3037 3.62899 0 4.26568 0 4.94638V12.3804C0 13.4385 0.75201 14.3649 1.78711 14.5826L8.28711 15.9503C8.44241 15.983 8.59861 15.9991 8.75391 15.9991C9.26458 15.9991 9.76168 15.8247 10.168 15.4961C10.6963 15.0669 11 14.4298 11 13.7486V6.31454C11 5.25644 10.248 4.33068 9.21288 4.11288Z" fill="var(--fill-0, white)"/>
</g>
</svg>
