<svg preserveAspectRatio="none" width="100%" height="100%" overflow="visible" style="display: block;" viewBox="0 0 16 16" fill="none" xmlns="http://www.w3.org/2000/svg">
<g id="Group">
<path id="Vector" d="M15.25 7.25H11.733C11.576 3.609 10.279 0 8 0C5.721 0 4.424 3.609 4.267 7.25H0.75V8.75H4.267C4.424 12.391 5.721 16 8 16C10.279 16 11.576 12.391 11.733 8.75H15.25V7.25ZM8 1.5C8.858 1.5 10.079 3.716 10.233 7.25H5.767C5.921 3.716 7.142 1.5 8 1.5ZM8 14.5C7.142 14.5 5.921 12.284 5.767 8.75H10.234C10.08 12.284 8.859 14.5 8.001 14.5H8Z" fill="var(--fill-0, white)"/>
<path id="Vector_2" d="M8 16C3.589 16 0 12.411 0 8C0 3.589 3.589 0 8 0C12.411 0 16 3.589 16 8C16 12.411 12.411 16 8 16ZM8 1.5C4.416 1.5 1.5 4.416 1.5 8C1.5 11.584 4.416 14.5 8 14.5C11.584 14.5 14.5 11.584 14.5 8C14.5 4.416 11.584 1.5 8 1.5Z" fill="var(--fill-0, white)"/>
</g>
</svg>
