<svg preserveAspectRatio="none" width="100%" height="100%" overflow="visible" style="display: block;" viewBox="0 0 15 14" fill="none" xmlns="http://www.w3.org/2000/svg">
<g id="Group">
<path id="Vector" fill-rule="evenodd" clip-rule="evenodd" d="M0 10C0 7.7909 1.79077 6 4 6C6.20923 6 8 7.7909 8 10C8 12.2091 6.20923 14 4 14C1.79077 14 0 12.2091 0 10Z" fill="var(--fill-0, white)" fill-opacity="0.4"/>
<path id="Vector_2" d="M13.7803 1.28033C14.0732 0.987437 14.0732 0.512558 13.7803 0.219668C13.4875 -0.0732225 13.0126 -0.0732225 12.7197 0.219668L6.24823 6.69111C6.66491 6.97478 7.02523 7.33509 7.30889 7.75178L10 5.06066L11.4697 6.53033C11.7626 6.82322 12.2374 6.82322 12.5303 6.53033C12.8232 6.23743 12.8232 5.76256 12.5303 5.46967L11.0607 4L12 3.06065L13.4697 4.53033C13.7626 4.82322 14.2375 4.82322 14.5304 4.53033C14.8232 4.23744 14.8232 3.76256 14.5304 3.46967L13.0607 1.99999L13.7803 1.28033Z" fill="var(--fill-0, white)"/>
</g>
</svg>
