<svg width="1200" height="675" viewBox="0 0 1200 675" fill="none" xmlns="http://www.w3.org/2000/svg">
<g clip-path="url(#clip0_587_13)">
<path d="M1200 0H0V675H1200V0Z" fill="#0F0114"/>
<path opacity="0.5" d="M427 350.5L449.5 373L455.949 338.606C456.113 337.733 455.835 336.835 455.206 336.206L437.32 318.32C435.789 316.789 433.169 317.6 432.77 319.728L427 350.5Z" fill="#7C3AED"/>
<path d="M449.501 373L427.001 350.5L461.394 344.052C462.268 343.888 463.166 344.166 463.794 344.794L481.681 362.68C483.212 364.211 482.401 366.831 480.273 367.23L449.501 373Z" fill="#7C3AED"/>
<path opacity="0.5" d="M474.5 303L497.001 325.5L462.607 331.949C461.734 332.113 460.836 331.835 460.207 331.207L442.321 313.32C440.79 311.789 441.6 309.169 443.728 308.77L474.5 303Z" fill="#7C3AED"/>
<path d="M468.052 337.394C467.889 338.268 468.166 339.166 468.795 339.794L486.681 357.681C488.212 359.211 490.832 358.401 491.231 356.273L497.001 325.5L474.501 303.001L468.052 337.394Z" fill="#7C3AED"/>
<path d="M512.06 362V328.19H521.3V362H512.06ZM516.68 322.73C515.187 322.73 513.95 322.24 512.97 321.26C511.99 320.233 511.5 318.973 511.5 317.48C511.5 316.033 511.99 314.797 512.97 313.77C513.95 312.743 515.187 312.23 516.68 312.23C518.22 312.23 519.457 312.743 520.39 313.77C521.37 314.797 521.86 316.033 521.86 317.48C521.86 318.973 521.37 320.233 520.39 321.26C519.457 322.24 518.22 322.73 516.68 322.73ZM549.373 362V342.61C549.373 340.603 548.743 338.97 547.483 337.71C546.223 336.45 544.59 335.82 542.583 335.82C541.277 335.82 540.11 336.1 539.083 336.66C538.057 337.22 537.24 338.013 536.633 339.04C536.073 340.067 535.793 341.257 535.793 342.61L532.223 340.79C532.223 338.13 532.783 335.82 533.903 333.86C535.07 331.853 536.657 330.29 538.663 329.17C540.717 328.05 543.027 327.49 545.593 327.49C548.067 327.49 550.283 328.12 552.243 329.38C554.203 330.593 555.743 332.203 556.863 334.21C557.983 336.17 558.543 338.293 558.543 340.58V362H549.373ZM526.623 362V328.19H535.793V362H526.623ZM581.89 362.7C579.463 362.7 577.27 362.187 575.31 361.16C573.35 360.133 571.787 358.733 570.62 356.96C569.453 355.187 568.823 353.203 568.73 351.01V338.97C568.823 336.777 569.453 334.817 570.62 333.09C571.833 331.317 573.42 329.94 575.38 328.96C577.34 327.98 579.51 327.49 581.89 327.49C585.017 327.49 587.817 328.26 590.29 329.8C592.763 331.34 594.7 333.44 596.1 336.1C597.547 338.76 598.27 341.77 598.27 345.13C598.27 348.443 597.547 351.43 596.1 354.09C594.7 356.75 592.763 358.85 590.29 360.39C587.817 361.93 585.017 362.7 581.89 362.7ZM563.13 362V311.39H572.3V336.52L570.76 344.64L572.23 352.9V362H563.13ZM580.35 354.23C582.03 354.23 583.5 353.857 584.76 353.11C586.067 352.317 587.07 351.243 587.77 349.89C588.517 348.49 588.89 346.88 588.89 345.06C588.89 343.287 588.517 341.723 587.77 340.37C587.07 338.97 586.067 337.897 584.76 337.15C583.453 336.357 581.96 335.96 580.28 335.96C578.6 335.96 577.107 336.357 575.8 337.15C574.54 337.897 573.537 338.97 572.79 340.37C572.09 341.723 571.74 343.287 571.74 345.06C571.74 346.88 572.09 348.49 572.79 349.89C573.537 351.243 574.563 352.317 575.87 353.11C577.177 353.857 578.67 354.23 580.35 354.23ZM617.372 362.7C613.966 362.7 610.886 361.93 608.132 360.39C605.426 358.803 603.256 356.68 601.622 354.02C600.036 351.313 599.242 348.303 599.242 344.99C599.242 341.677 600.036 338.713 601.622 336.1C603.209 333.44 605.379 331.34 608.132 329.8C610.886 328.213 613.942 327.42 617.302 327.42C620.756 327.42 623.836 328.213 626.542 329.8C629.296 331.34 631.466 333.44 633.052 336.1C634.639 338.713 635.432 341.677 635.432 344.99C635.432 348.303 634.639 351.313 633.052 354.02C631.466 356.68 629.296 358.803 626.542 360.39C623.836 361.93 620.779 362.7 617.372 362.7ZM617.302 354.16C619.029 354.16 620.546 353.787 621.852 353.04C623.206 352.247 624.232 351.173 624.932 349.82C625.679 348.42 626.052 346.833 626.052 345.06C626.052 343.287 625.679 341.723 624.932 340.37C624.186 339.017 623.159 337.967 621.852 337.22C620.546 336.427 619.029 336.03 617.302 336.03C615.622 336.03 614.129 336.427 612.822 337.22C611.516 337.967 610.489 339.017 609.742 340.37C608.996 341.723 608.622 343.287 608.622 345.06C608.622 346.833 608.996 348.42 609.742 349.82C610.489 351.173 611.516 352.247 612.822 353.04C614.129 353.787 615.622 354.16 617.302 354.16ZM652.956 362.7C649.969 362.7 647.309 362.07 644.976 360.81C642.689 359.55 640.892 357.8 639.586 355.56C638.279 353.32 637.626 350.73 637.626 347.79V328.19H646.866V347.58C646.866 348.98 647.099 350.193 647.566 351.22C648.032 352.2 648.732 352.947 649.666 353.46C650.599 353.973 651.696 354.23 652.956 354.23C654.869 354.23 656.362 353.647 657.436 352.48C658.509 351.313 659.046 349.68 659.046 347.58V328.19H668.216V347.79C668.216 350.777 667.562 353.39 666.256 355.63C664.996 357.87 663.199 359.62 660.866 360.88C658.579 362.093 655.942 362.7 652.956 362.7ZM695.468 362V342.61C695.468 340.603 694.838 338.97 693.578 337.71C692.318 336.45 690.685 335.82 688.678 335.82C687.372 335.82 686.205 336.1 685.178 336.66C684.152 337.22 683.335 338.013 682.728 339.04C682.168 340.067 681.888 341.257 681.888 342.61L678.318 340.79C678.318 338.13 678.878 335.82 679.998 333.86C681.165 331.853 682.752 330.29 684.758 329.17C686.812 328.05 689.122 327.49 691.688 327.49C694.162 327.49 696.378 328.12 698.338 329.38C700.298 330.593 701.838 332.203 702.958 334.21C704.078 336.17 704.638 338.293 704.638 340.58V362H695.468ZM672.718 362V328.19H681.888V362H672.718ZM723.505 362.7C720.378 362.7 717.578 361.93 715.105 360.39C712.632 358.85 710.672 356.75 709.225 354.09C707.825 351.43 707.125 348.443 707.125 345.13C707.125 341.77 707.825 338.76 709.225 336.1C710.672 333.44 712.608 331.34 715.035 329.8C717.508 328.26 720.332 327.49 723.505 327.49C725.932 327.49 728.102 327.98 730.015 328.96C731.975 329.94 733.538 331.317 734.705 333.09C735.918 334.817 736.572 336.777 736.665 338.97V351.01C736.572 353.203 735.942 355.187 734.775 356.96C733.608 358.733 732.045 360.133 730.085 361.16C728.125 362.187 725.932 362.7 723.505 362.7ZM725.045 354.23C726.772 354.23 728.265 353.857 729.525 353.11C730.832 352.317 731.835 351.243 732.535 349.89C733.282 348.49 733.655 346.88 733.655 345.06C733.655 343.287 733.282 341.723 732.535 340.37C731.835 338.97 730.832 337.897 729.525 337.15C728.265 336.357 726.795 335.96 725.115 335.96C723.388 335.96 721.872 336.357 720.565 337.15C719.305 337.943 718.302 339.017 717.555 340.37C716.855 341.723 716.505 343.287 716.505 345.06C716.505 346.88 716.855 348.49 717.555 349.89C718.302 351.243 719.328 352.317 720.635 353.11C721.942 353.857 723.412 354.23 725.045 354.23ZM742.265 362H733.165V352.9L734.635 344.64L733.095 336.52V311.39H742.265V362Z" fill="white"/>
</g>
<defs>
<clipPath id="clip0_587_13">
<rect width="1200" height="675" fill="white"/>
</clipPath>
</defs>
</svg>
