<svg preserveAspectRatio="none" width="100%" height="100%" overflow="visible" style="display: block;" viewBox="0 0 32 32" fill="none" xmlns="http://www.w3.org/2000/svg">
<g id="Frame">
<path id="Vector" opacity="0.45" fill-rule="evenodd" clip-rule="evenodd" d="M8.55467 4C6.99307 4 5.49544 4.62034 4.39122 5.72455C3.28701 6.82877 2.66667 8.3264 2.66667 9.888V21.6653C2.66649 22.4387 2.81866 23.2045 3.11448 23.919C3.4103 24.6335 3.84398 25.2827 4.39075 25.8296C4.93752 26.3765 5.58667 26.8104 6.30112 27.1063C7.01557 27.4023 7.78133 27.5547 8.55467 27.5547H23.4453C24.2188 27.5547 24.9846 27.4023 25.6992 27.1062C26.4137 26.8101 27.0629 26.3762 27.6097 25.8292C28.1565 25.2821 28.5902 24.6327 28.8859 23.9181C29.1816 23.2034 29.3337 22.4374 29.3333 21.664V9.888C29.3333 8.3264 28.713 6.82877 27.6088 5.72455C26.5046 4.62034 25.0069 4 23.4453 4H8.55467ZM12.8587 6.356V25.1987H23.4453C24.3824 25.1987 25.2811 24.8264 25.9438 24.1638C26.6064 23.5011 26.9787 22.6024 26.9787 21.6653V9.888C26.9787 8.9509 26.6064 8.05218 25.9438 7.38956C25.2811 6.72693 24.3824 6.35467 23.4453 6.35467H12.8587V6.356Z" fill="var(--fill-0, black)"/>
</g>
</svg>
