<svg preserveAspectRatio="none" width="100%" height="100%" overflow="visible" style="display: block;" viewBox="0 0 19 19" fill="none" xmlns="http://www.w3.org/2000/svg">
<g id="Frame">
<path id="Vector" d="M7.41554 1.78125H7.44167C7.59914 1.78125 7.75016 1.84381 7.86151 1.95516C7.97286 2.0665 8.03542 2.21753 8.03542 2.375C8.03542 2.53247 7.97286 2.68349 7.86151 2.79484C7.75016 2.90619 7.59914 2.96875 7.44167 2.96875C6.5455 2.96875 5.90821 2.96875 5.41025 3.00992C4.91942 3.0495 4.61462 3.12629 4.37317 3.249C3.88917 3.49565 3.49565 3.88917 3.249 4.37317C3.12629 4.61462 3.05029 4.91942 3.00992 5.41025C2.96954 5.909 2.96875 6.5455 2.96875 7.44167V11.5583C2.96875 12.4553 2.96875 13.0918 3.00992 13.5898C3.0495 14.0806 3.12629 14.3854 3.249 14.6268C3.49565 15.1108 3.88917 15.5043 4.37317 15.751C4.61462 15.8737 4.91942 15.9497 5.41025 15.9901C5.909 16.0305 6.5455 16.0313 7.44167 16.0313H11.5583C12.4553 16.0313 13.0918 16.0313 13.5898 15.9901C14.0806 15.9505 14.3854 15.8737 14.6268 15.751C15.1108 15.5043 15.5043 15.1108 15.751 14.6268C15.8737 14.3854 15.9497 14.0806 15.9901 13.5898C16.0305 13.091 16.0313 12.4545 16.0313 11.5583V10.6875C16.0313 10.53 16.0938 10.379 16.2052 10.2677C16.3165 10.1563 16.4675 10.0937 16.625 10.0937C16.7825 10.0937 16.9335 10.1563 17.0448 10.2677C17.1562 10.379 17.2188 10.53 17.2188 10.6875V11.5845C17.2188 12.449 17.2188 13.1345 17.1736 13.6863C17.1277 14.2516 17.0311 14.729 16.8095 15.166C16.4488 15.8733 15.8735 16.4483 15.166 16.8087C14.729 17.0311 14.2516 17.1277 13.6863 17.1736C13.1345 17.2188 12.449 17.2188 11.5845 17.2188H7.41554C6.55104 17.2188 5.86546 17.2188 5.31367 17.1736C4.74842 17.1277 4.27104 17.0311 3.83483 16.8095C3.12719 16.4489 2.55187 15.8736 2.19133 15.166C1.96887 14.729 1.87229 14.2516 1.82637 13.6863C1.78125 13.1345 1.78125 12.449 1.78125 11.5845V7.41554C1.78125 6.55104 1.78125 5.86546 1.82637 5.31367C1.87229 4.74842 1.96887 4.27104 2.19054 3.83483C2.55128 3.12707 3.1269 2.55173 3.83483 2.19133C4.27025 1.96887 4.74842 1.87229 5.31367 1.82637C5.86546 1.78125 6.55104 1.78125 7.41554 1.78125ZM10.6875 2.375C10.6875 2.21753 10.7501 2.0665 10.8614 1.95516C10.9728 1.84381 11.1238 1.78125 11.2812 1.78125H16.625C16.7825 1.78125 16.9335 1.84381 17.0448 1.95516C17.1562 2.0665 17.2188 2.21753 17.2188 2.375V7.71875C17.2188 7.87622 17.1562 8.02724 17.0448 8.13859C16.9335 8.24994 16.7825 8.3125 16.625 8.3125C16.4675 8.3125 16.3165 8.24994 16.2052 8.13859C16.0938 8.02724 16.0313 7.87622 16.0313 7.71875V3.80792L10.5133 9.32583C10.459 9.38417 10.3934 9.43096 10.3206 9.46341C10.2478 9.49586 10.1691 9.51331 10.0894 9.51472C10.0097 9.51613 9.9305 9.50146 9.85657 9.4716C9.78264 9.44173 9.71548 9.39729 9.65909 9.3409C9.60271 9.28452 9.55827 9.21736 9.5284 9.14343C9.49854 9.0695 9.48387 8.99031 9.48528 8.91059C9.48669 8.83086 9.50414 8.75224 9.53659 8.67941C9.56904 8.60657 9.61583 8.54102 9.67417 8.48667L15.1921 2.96875H11.2812C11.1238 2.96875 10.9728 2.90619 10.8614 2.79484C10.7501 2.68349 10.6875 2.53247 10.6875 2.375Z" fill="var(--fill-0, black)"/>
</g>
</svg>
