<svg preserveAspectRatio="none" width="100%" height="100%" overflow="visible" style="display: block;" viewBox="0 0 39 39" fill="none" xmlns="http://www.w3.org/2000/svg">
<g id="Frame" opacity="0.8">
<rect width="39" height="39" rx="9" fill="var(--fill-0, #6C47FF)" fill-opacity="0.13"/>
<path id="Vector" d="M19.5 31C21.0102 31 22.5056 30.7025 23.9009 30.1246C25.2961 29.5467 26.5639 28.6996 27.6317 27.6317C28.6996 26.5639 29.5467 25.2961 30.1246 23.9009C30.7025 22.5056 31 21.0102 31 19.5C31 17.9898 30.7025 16.4944 30.1246 15.0991C29.5467 13.7039 28.6996 12.4361 27.6317 11.3683C26.5639 10.3004 25.2961 9.45331 23.9009 8.87539C22.5056 8.29746 21.0102 8 19.5 8M19.5 31C17.9898 31 16.4944 30.7025 15.0991 30.1246C13.7039 29.5467 12.4361 28.6996 11.3683 27.6317C10.3004 26.5639 9.45331 25.2961 8.87539 23.9009C8.29746 22.5056 8 21.0102 8 19.5C8 17.9898 8.29746 16.4944 8.87539 15.0991C9.45331 13.7039 10.3004 12.4361 11.3683 11.3683C12.4361 10.3004 13.7039 9.45331 15.0991 8.87539C16.4944 8.29746 17.9898 8 19.5 8M19.5 31C23.0279 31 24.5357 24.4028 24.5357 19.5C24.5357 14.5972 23.0279 8 19.5 8M19.5 31C15.9721 31 14.4643 24.4028 14.4643 19.5C14.4643 14.5972 15.9721 8 19.5 8M8.63889 15.6667H30.3611M8.63889 23.3333H30.3611" stroke="var(--stroke-0, #2E00E4)" stroke-width="2" stroke-linecap="round" stroke-linejoin="round"/>
</g>
</svg>
