<svg preserveAspectRatio="none" width="100%" height="100%" overflow="visible" style="display: block;" viewBox="0 0 14 14" fill="none" xmlns="http://www.w3.org/2000/svg">
<g id="Frame" opacity="0.6">
<path id="Vector" d="M1.37667 4.49633V8.57325C1.37667 9.55325 1.37667 10.0432 1.56742 10.4177C1.73529 10.7468 2.00299 11.0143 2.33217 11.1819C2.70667 11.3733 3.19667 11.3733 4.17667 11.3733H9.82333C10.8033 11.3733 11.2933 11.3733 11.6678 11.1825C11.9971 11.0147 12.2648 10.747 12.4326 10.4177C12.6233 10.0432 12.6233 9.55325 12.6233 8.57325V4.49633M1.37667 4.49633L5.63967 2.12683C6.13608 1.85092 6.38458 1.71267 6.64708 1.659C6.87992 1.61106 7.12008 1.61106 7.35292 1.659C7.61542 1.71325 7.86392 1.8515 8.36033 2.12683L12.6233 4.49633M1.37667 4.49633L5.44717 7.21175C6.00833 7.58567 6.28833 7.77292 6.59225 7.84583C6.86058 7.91 7.14 7.91 7.40775 7.84583C7.71108 7.77292 7.99225 7.58567 8.554 7.21117L12.6233 4.49633" stroke="var(--stroke-0, black)" stroke-linecap="round" stroke-linejoin="round"/>
</g>
</svg>
