<svg preserveAspectRatio="none" width="100%" height="100%" overflow="visible" style="display: block;" viewBox="0 0 18 20" fill="none" xmlns="http://www.w3.org/2000/svg">
<g id="Group">
<g id="Vector">
</g>
<path id="Vector_2" fill-rule="evenodd" clip-rule="evenodd" d="M7.79167 1.83267C6.21142 1.83267 4.69589 2.46042 3.57849 3.57783C2.46108 4.69523 1.83333 6.21076 1.83333 7.791C1.83333 9.37125 2.46108 10.8868 3.57849 12.0042C4.69589 13.1216 6.21142 13.7493 7.79167 13.7493C9.37192 13.7493 10.8874 13.1216 12.0048 12.0042C13.1222 10.8868 13.75 9.37125 13.75 7.791C13.75 6.21076 13.1222 4.69523 12.0048 3.57783C10.8874 2.46042 9.37192 1.83267 7.79167 1.83267ZM1.75713e-08 7.791C0.000105867 6.54855 0.297334 5.32413 0.866886 4.21991C1.43644 3.11568 2.2618 2.16367 3.27411 1.4433C4.28642 0.722935 5.45632 0.255096 6.68621 0.0788198C7.9161 -0.0974566 9.17031 0.0229408 10.3442 0.429967C11.5181 0.836994 12.5776 1.51885 13.4344 2.41864C14.2912 3.31843 14.9204 4.41007 15.2695 5.60247C15.6186 6.79488 15.6774 8.05348 15.4412 9.27327C15.2049 10.4931 14.6804 11.6387 13.9113 12.6145L17.259 15.9622C17.426 16.1351 17.5184 16.3666 17.5163 16.607C17.5142 16.8473 17.4178 17.0772 17.2478 17.2472C17.0779 17.4171 16.848 17.5135 16.6076 17.5156C16.3673 17.5177 16.1357 17.4253 15.9628 17.2583L12.6152 13.9107C11.4662 14.8163 10.0855 15.3802 8.63108 15.5378C7.17663 15.6955 5.70719 15.4404 4.39092 14.8019C3.07465 14.1633 1.96474 13.1671 1.18821 11.9273C0.411681 10.6874 -9.82147e-05 9.25397 1.75713e-08 7.791ZM6.875 4.58267C6.875 4.33956 6.97158 4.1064 7.14349 3.93449C7.31539 3.76258 7.54855 3.666 7.79167 3.666C8.88568 3.666 9.93489 4.1006 10.7085 4.87419C11.4821 5.64778 11.9167 6.69699 11.9167 7.791C11.9167 8.03412 11.8201 8.26728 11.6482 8.43918C11.4763 8.61109 11.2431 8.70767 11 8.70767C10.7569 8.70767 10.5237 8.61109 10.3518 8.43918C10.1799 8.26728 10.0833 8.03412 10.0833 7.791C10.0833 7.18322 9.84189 6.60032 9.41212 6.17055C8.98235 5.74078 8.39945 5.49934 7.79167 5.49934C7.54855 5.49934 7.31539 5.40276 7.14349 5.23085C6.97158 5.05894 6.875 4.82579 6.875 4.58267Z" fill="var(--fill-0, black)"/>
</g>
</svg>
